<svg width="27" height="27" viewBox="0 0 27 27" fill="none" xmlns="http://www.w3.org/2000/svg">
<g clip-path="url(#clip0_74_365)">
<g clip-path="url(#clip1_74_365)">
<g clip-path="url(#clip2_74_365)">
<path d="M13.9894 14.2789V14.0215C13.9894 13.1802 14.5365 12.7241 15.0847 12.374C15.6198 12.0312 16.1561 11.5843 16.1561 10.7605C16.1561 9.62275 15.1865 8.7012 13.9894 8.7012C12.7923 8.7012 11.8228 9.62275 11.8228 10.7605M13.9894 17.3679H14.0024M5.32275 12.547C5.32275 6.04704 6.94775 5.50537 13.9894 5.50537C21.0311 5.50537 22.6561 6.04704 22.6561 12.547C22.6561 18.0906 21.4742 19.3003 16.7581 19.5363C15.3763 20.8179 12.787 22.8387 10.1978 22.8387L11.026 19.5259C6.47206 19.2658 5.32275 18.0134 5.32275 12.547Z" stroke="white" stroke-width="1.625" stroke-miterlimit="10" stroke-linecap="round" stroke-linejoin="round"/>
</g>
</g>
</g>
<defs>
<clipPath id="clip0_74_365">
<rect width="26" height="26" fill="white" transform="translate(0.989258 0.901367)"/>
</clipPath>
<clipPath id="clip1_74_365">
<rect width="26" height="26" fill="white" transform="translate(0.989258 0.901367)"/>
</clipPath>
<clipPath id="clip2_74_365">
<rect width="26" height="26" fill="white" transform="translate(0.989258 0.901367)"/>
</clipPath>
</defs>
</svg>
